<svg xmlns="http://www.w3.org/2000/svg" viewBox="182 48 287 57"><path fill="#4B6E48" d="M443.5 74.7c0-1.2-.4-5.4-5-8.2-1.3-.8-2.9-1.3-4.6-1.3-1.5 0-3.1.3-4.5.9-1.5.6-2.8 1.4-4 2.4-1.2 1-2.1 2.3-2.8 3.8-.7 1.5-1.1 3.1-1.1 4.9 0 2.3.4 4.2 1.3 5.7.9 1.6 1.9 2.8 3.2 3.8 1.3 1 2.7 1.7 4.1 2.1 1.5.4 2.8.7 4 .7 1.1 0 2.2-.2 3.2-.5s1.9-.8 2.7-1.3c.8-.5 1.4-1.1 1.9-1.7.5-.6.7-1.3.7-1.9 0-.4-.2-1.2-.6-1.7-.1-.2-.8-.9-1.3-1.2-1.2-.7-2.2-.8-3.1-.3-2.7 1.4-5.1 1.2-6.2.7-.8-.4-1.1-.7-1.1-1.6.1-2.9 8.3.8 12.1-1.8.8-.7 1.1-2.5 1.1-3.5zm-8.1 1.2c-.6.3-1.4.4-2.4.4-.6 0-1.2-.1-1.9-.3-.6-.2-1-.6-1-1.2 0-.4.2-.7.6-1.1.4-.4 1.1-.6 2.2-.6.9 0 1.6.2 2.3.5.6.3 1 .8 1 1.3.1.4-.2.8-.8 1z"/><path fill="#7CAC62" d="M193.7 64.9c.4.1.9.2 1.6.2.3 0 .6 0 1-.1.3-.1.7-.2 1.1-.3.4-.1.8-.2 1.3-.3.5-.1 1.1-.1 1.8-.1 1.1 0 1.9.1 2.6.3.6.2 1.2.4 1.6.6.4.2.8.4 1.3.6.4.2.9.3 1.5.3s1.1-.1 1.5-.3l1.2-.6c.4-.2.9-.4 1.6-.6.6-.2 1.5-.3 2.7-.3 1.2 0 2.3.2 3.4.6 1.1.4 2 1.1 2.8 2 .8.9 1.5 2 2 3.4s.7 3 .7 4.9v7.4c0 1.9-.4 3.4-1.1 4.3-.7.9-1.7 1.4-2.8 1.4-.5 0-1-.1-1.5-.3-.5-.2-.9-.5-1.4-1-.4-.4-.7-1-1-1.8-.3-.7-.4-1.6-.4-2.7v-6.3c0-1-.2-1.9-.7-2.7-.5-.8-1.2-1.2-2.1-1.2-.5 0-.9.1-1.3.4-.4.3-.6.7-.8 1.1-.2.5-.4 1-.5 1.5-.1.6-.2 1.1-.2 1.7v6.4c0 .6-.1 1.2-.3 1.7-.2.6-.5 1.1-.9 1.6s-.8.8-1.3 1.1c-.5.3-1.1.4-1.7.4-1 0-1.9-.4-2.7-1.2-.8-.8-1.2-2-1.2-3.6V78c0-1.9-.2-3.4-.7-4.3-.4-.9-1.1-1.4-2.1-1.4-.8 0-1.5.4-2.1 1.2-.6.8-.8 2.2-.8 4v5.7c0 .6-.1 1.3-.3 1.9-.2.6-.4 1.2-.8 1.6-.4.5-.8.9-1.3 1.2-.5.3-1.1.4-1.8.4-1.2 0-2.2-.5-2.9-1.5-.7-1-1.1-2.2-1.1-3.6v-13c0-.7.1-1.4.2-2.1.2-.7.4-1.3.8-1.8s.8-.9 1.4-1.2c.6-.3 1.3-.5 2.1-.5.7.1 1.2.2 1.6.3zm36.7 1c.8.8 1.4 1.9 2 3.2.1.3.3.7.5 1.3.2.5.4 1 .7 1.5.3.5.5.9.8 1.3.3.4.6.6 1 .6s.7-.2.9-.5c.3-.3.5-.7.7-1.2.2-.5.4-.9.6-1.4.2-.5.3-.8.4-1.1.3-.6.5-1.3.9-1.9.3-.6.7-1.1 1.1-1.6.4-.4.9-.8 1.4-1.1.5-.3 1.2-.4 1.9-.4.6 0 1.1.1 1.5.3.4.2.8.5 1 .9.3.4.4.7.6 1.2.1.4.2.8.2 1.3 0 .9-.4 2.3-1.1 4.2l-7.2 18.8c-.4 1.1-.9 2.1-1.4 3-.5.9-1 1.7-1.6 2.2-.3.3-.6.6-1 .9-.4.3-.9.7-1.4 1-.5.3-1.1.6-1.8.8-.7.2-1.5.3-2.3.3-.9 0-1.6-.1-2.3-.3-.7-.2-1.2-.5-1.7-.9-.4-.4-.8-.8-1-1.2-.2-.5-.3-.9-.3-1.4 0-.9.2-1.7.7-2.2.5-.5 1-.9 1.7-1.3.6-.3 1.3-.6 2-.9.7-.2 1.2-.6 1.6-.9.4-.4.6-.8.9-1.4.2-.6.3-1.3.3-2.2 0-.3-.1-.7-.3-1.3-.2-.6-.4-1.1-.6-1.6l-5.2-12.4c-.6-1.6-1-2.7-1-3.4 0-1 .3-1.8.8-2.6s1.5-1.1 2.9-1.1c1.3.2 2.4.6 3.1 1.5z"/><path fill="#4B6E48" d="M253.6 53.3c.5.4.9 1 1.2 1.7.3.7.5 1.5.6 2.4.1.9.1 1.9.1 2.9 0 .9 0 1.6.1 2.1s.2.9.4 1.2c.2.3.4.5.7.6.3.1.6.2 1.1.2.5 0 1.1-.1 1.8-.2s1.5-.2 2.5-.2c1.1 0 2.3.3 3.5.8 1.2.5 2.4 1.4 3.4 2.4 1.1 1.1 1.9 2.4 2.6 3.9.7 1.5 1.1 3.3 1.1 5.2 0 2.3-.4 4.3-1.1 6-.8 1.6-1.7 2.9-2.9 3.9s-2.4 1.7-3.8 2.2c-1.4.4-2.6.7-3.8.7-.9 0-1.7-.1-2.2-.2-.5-.1-1-.3-1.4-.4-.4-.1-.8-.3-1.1-.4-.4-.1-.8-.2-1.4-.2-.4 0-.7 0-1 .1-.2 0-.5.1-.7.1-.2 0-.5.1-.7.1-.3 0-.6.1-1 .1-1.3 0-2.3-.5-3.1-1.4-.8-.9-1.2-2.5-1.2-4.9V57.9c0-1.5.4-2.8 1.1-3.8.7-1 1.8-1.5 3.1-1.5.9.1 1.6.3 2.1.7zm4.9 19.1c-.5.2-1 .5-1.4.9-.4.4-.8.9-1 1.4-.3.6-.4 1.2-.4 1.9 0 .4.1.9.2 1.4.2.5.4 1 .7 1.5.3.5.8.9 1.3 1.2.5.3 1.2.5 2 .5s1.5-.1 2-.4c.6-.3 1-.6 1.4-1.1.4-.4.6-.9.8-1.4.2-.5.3-1 .3-1.5 0-1.3-.4-2.4-1.1-3.3-.7-.9-1.8-1.4-3.2-1.4-.4-.1-1 0-1.6.3zm32.3-7.7c1.6.6 3 1.5 4.1 2.6 1.2 1.1 2.1 2.5 2.9 4 .7 1.6 1.1 3.3 1.1 5.1 0 1.9-.4 3.6-1.1 5.2-.7 1.6-1.6 2.9-2.8 4.1-1.2 1.2-2.5 2.1-4.1 2.7-1.6.6-3.2 1-4.9 1-1.7 0-3.4-.3-5-.9-1.6-.6-3-1.5-4.2-2.6-1.2-1.1-2.2-2.5-2.9-4-.7-1.6-1.1-3.3-1.1-5.2 0-2.2.4-4 1.2-5.6.8-1.6 1.9-2.9 3.1-4 1.3-1.1 2.7-1.9 4.2-2.4s3-.8 4.5-.8c1.8-.1 3.4.2 5 .8zm-6.9 7.6c-.6.3-1 .6-1.4 1.1-.4.4-.7.9-.9 1.5-.2.5-.3 1.1-.3 1.7 0 .5.1 1 .3 1.5.2.5.5 1.1.9 1.5.4.5.9.8 1.4 1.1.6.3 1.2.4 2 .4.7 0 1.4-.1 2-.4.6-.3 1-.7 1.4-1.1.4-.4.6-.9.8-1.5.2-.5.3-1.1.3-1.6 0-1.3-.4-2.3-1.2-3.3-.8-.9-1.9-1.4-3.3-1.4-.8.1-1.4.2-2 .5z"/><path fill="#4B6E48" d="M316.8 64.7c1.6.6 3 1.5 4.1 2.6 1.2 1.1 2.1 2.5 2.9 4 .7 1.6 1.1 3.3 1.1 5.1 0 1.9-.4 3.6-1.1 5.2-.7 1.6-1.6 2.9-2.8 4.1-1.2 1.2-2.5 2.1-4.1 2.7-1.6.6-3.2 1-4.9 1-1.7 0-3.4-.3-5-.9-1.6-.6-3-1.5-4.2-2.6-1.2-1.1-2.2-2.5-2.9-4-.7-1.6-1.1-3.3-1.1-5.2 0-2.2.4-4 1.2-5.6.8-1.6 1.9-2.9 3.1-4 1.3-1.1 2.7-1.9 4.2-2.4s3-.8 4.5-.8c1.8-.1 3.5.2 5 .8zm-6.8 7.6c-.6.3-1 .6-1.4 1.1-.4.4-.7.9-.9 1.5-.2.5-.3 1.1-.3 1.7 0 .5.1 1 .3 1.5.2.5.5 1.1.9 1.5.4.5.9.8 1.4 1.1.6.3 1.2.4 2 .4.7 0 1.4-.1 1.9-.4.6-.3 1-.7 1.4-1.1.4-.4.6-.9.8-1.5.2-.5.3-1.1.3-1.6 0-1.3-.4-2.3-1.2-3.3-.8-.9-1.9-1.4-3.3-1.4-.7.1-1.4.2-1.9.5zM331.9 54c.5.3.9.6 1.4 1.2.4.5.7 1.2 1 1.9.3.8.4 1.6.4 2.6v6.4c0 .6.1 1.3.3 1.9.2.6.6.9 1 .9s.9-.2 1.3-.6c.4-.4 1-.8 1.5-1.3.6-.5 1.2-.9 1.9-1.3s1.5-.6 2.5-.6 1.8.2 2.6.7c.7.4 1.1 1.1 1.1 2.1 0 .7-.3 1.4-.8 2.1-.5.7-1.1 1.4-1.7 2.1-.6.7-1.2 1.4-1.7 2.1-.5.7-.8 1.4-.8 2 0 .6.3 1.2.9 2 .6.8 1.3 1.6 2 2.5.7.9 1.4 1.7 2 2.6.6.9.9 1.7.9 2.4 0 .9-.4 1.7-1.1 2.2-.8.5-1.6.8-2.7.8-.3 0-.6-.1-1-.1-.4-.1-.8-.2-1.2-.4-.4-.2-.8-.4-1.1-.6-.4-.2-.7-.5-1-.8-.2-.2-.5-.5-.8-.9-.3-.4-.6-.7-1-1-.4-.3-.7-.6-1.1-.9-.4-.2-.8-.4-1.2-.4-.3 0-.5.2-.7.7-.2.5-.5 1-.8 1.6-.3.6-.8 1.1-1.3 1.6s-1.2.7-2.1.7c-.4 0-.9-.1-1.4-.3-.5-.2-1-.5-1.4-1-.4-.5-.8-1.1-1-2-.3-.8-.4-1.9-.4-3.2V59.5c0-.7.1-1.4.2-2.1.1-.7.4-1.3.7-1.9.3-.6.8-1 1.3-1.4.5-.4 1.2-.5 1.9-.5.4 0 .9.1 1.4.4zm16.7 15.9c0-.9.1-1.6.2-2.2.1-.6.3-1.1.5-1.4.2-.4.4-.7.6-.9l.6-.6c.8-.6 3-.8 4.1 0 .2.1.4.4.6.6.2.2.4.5.7.9.2.4.4.9.6 1.4.1.6.2 1.3.2 2.2V83c0 1.6-.3 2.9-1 3.9-.6 1-1.7 1.5-3.1 1.5-1.3 0-2.3-.5-3-1.5-.7-1-1.1-2.3-1.1-3.9l.1-13.1zm17-5c.5.1 1 .2 1.6.2.3 0 .7-.1 1-.2.4-.1.8-.2 1.3-.4.5-.1 1.1-.3 1.9-.4.7-.1 1.6-.2 2.7-.2 1 0 2.1.2 3.2.5s2.1.9 3.1 1.7c.9.8 1.7 1.9 2.3 3.2.6 1.3.9 3.1.9 5.1v8.7c0 .5-.1 1-.2 1.6-.2.6-.4 1.2-.7 1.7-.3.5-.7.9-1.3 1.3-.5.4-1.1.5-1.9.5-1.2 0-2.2-.5-3-1.5-.8-1-1.1-2.3-1.2-3.7v-6.8c0-1.3-.3-2.3-1-3.1-.7-.8-1.5-1.2-2.6-1.2s-2.1.4-2.8 1.2c-.7.8-1.1 2.1-1.1 3.8v5.7c0 .7-.1 1.4-.3 2.1s-.5 1.3-.8 1.8c-.4.5-.8 1-1.4 1.3-.5.3-1.1.5-1.8.5s-1.3-.1-1.8-.4c-.5-.3-.9-.7-1.3-1.2-.3-.5-.6-1-.7-1.6-.2-.6-.2-1.3-.2-1.9V69.7c0-.8.1-1.5.4-2.1.2-.6.6-1.1 1-1.6.4-.4.9-.7 1.4-1s1-.3 1.6-.3c.7 0 1.2.1 1.7.2zm43.8 1.8c-.7-1.2-1.8-1.7-3.3-1.7-.4 0-1 .1-1.7.2s-1.3.2-1.7.2c-.4 0-.8-.1-1.2-.2-.4-.1-.8-.2-1.3-.4-.5-.1-1-.3-1.6-.4-.6-.1-1.3-.2-2.1-.2-1.7 0-3.3.3-4.7.9-1.4.6-2.7 1.5-3.7 2.7-1 1.1-1.9 2.5-2.4 4.1-.6 1.6-.9 3.3-.9 5.3 0 1.3.2 2.4.5 3.4s.7 1.9 1.2 2.7c.5.8.9 1.4 1.4 2 .5.5 3.4 3.4 7.2 3.2.1 0 .3 0 .7-.1.4 0 .9-.1 1.5-.2.5-.1.9-.1 1.1-.1.5 0 .8.1 1 .2.2.1.4 1.3.4 1.8s-.2.8-.7 1.1c-.5.2-1.1.4-2 .4s-1.6-.2-2.3-.5c-.7-.3-.8-.8-2.1-1.3-1.3-.4-4.4-1.1-5.9 1.8-.9 1.9-.1 3.8.3 4.4.4.6 1 1.1 1.9 1.7.9.5 2 1 3.3 1.3 1.3.4 3 .5 4.9.5 2.6 0 4.8-.5 6.5-1.4 1.7-.9 3.1-2.1 4.1-3.5 1-1.4 1.7-3 2.1-4.8.4-1.8.6-3.4.6-5.1V71.4c0-2-.4-3.5-1.1-4.7zm-7.5 11.6c-.2.5-.5 1-.9 1.4-.4.4-.9.8-1.4 1-.5.3-1.1.4-1.8.4-1.2 0-2.2-.4-3.2-1.2-.9-.8-1.4-2-1.4-3.5 0-1.4.5-2.4 1.4-3.2.9-.7 2.1-1.1 3.4-1.1.6 0 1.1.1 1.6.4.5.3.9.6 1.3 1s.7.9.9 1.4c.2.5.3 1.1.3 1.7.1.6 0 1.2-.2 1.7zm17.6 4.1c.7.9 1.1 1.9 1.1 3 0 1.3-.4 2.3-1.2 3.1-.8.8-1.9 1.2-3.1 1.2-1.1 0-2.1-.4-2.9-1.2-.8-.8-1.3-1.8-1.3-3.1 0-.5.1-1 .3-1.5.2-.5.5-1 .8-1.4.4-.4.8-.8 1.3-1 .5-.3 1.1-.4 1.8-.4 1.4 0 2.5.4 3.2 1.3zm42.9-6.3c2.4 2.1 2.4 3.8 2.4 5 0 .9-.2 1.8-.7 2.8-.4 1-1.1 1.9-1.9 2.7-.8.8-1.9 1.5-3.1 2-1.2.5-2.6.8-4.2.8s-3-.1-4.1-.4c-1.1-.3-2-.7-2.7-1.1-.7-.5-1.2-1-1.5-1.6-.3-.6-.4-1.2-.4-1.7 0-.9 0-2.4 2.1-3.2 1.7-.7 4.6 1.1 5 0 .4-1.2-2-1.7-3.5-2.5-2.2-1.2-3.1-2.4-3.6-3.3-.5-.9-.8-2.1-.8-3.5 0-1.3.3-2.4.9-3.5.6-1 1.4-1.9 2.3-2.6.9-.7 1.9-1.2 3.1-1.6 1.1-.4 2.1-.5 3.1-.5 1.1 0 2.1.1 3 .4 1 .2 1.8.6 2.5 1s2.4 1.6 2.3 3.3c0 1.5-.8 2.4-1.4 2.7-1.7.9-3.3.4-3.9.9-.3.2-.4.5-.5.7.2 1.4 3.3 1.2 5.6 3.2zM348.7 58.6c-.1-.5 0-1.1.1-1.6s.5-1.1 1.1-1.8c.3-.3.7-.6 1.2-.8.5-.2 1-.3 1.5-.3s1.1.1 1.6.2c.5.2 1 .5 1.4.9.4.4.7.9.9 1.4.2.5.2 1 .2 1.5s-.1 1-.3 1.5c-.2.5-.5.9-.8 1.2-.6.6-1.2 1-1.7 1.1-.5.1-1.1.2-1.6.2-2.1-.1-3.4-2.2-3.6-3.5z"/></svg>