<?xml version="1.0" encoding="utf-8"?>
<!-- Generator: Adobe Illustrator 18.1.1, SVG Export Plug-In . SVG Version: 6.00 Build 0)  -->
<svg version="1.1" id="Layer_1" xmlns="http://www.w3.org/2000/svg" xmlns:xlink="http://www.w3.org/1999/xlink" x="0px" y="0px"
	 viewBox="182 48 287 57" enable-background="new 182 48 287 57" xml:space="preserve">
<g>
	<path fill="#ffffff" d="M443.5,74.7c0-1.2-0.4-5.4-5-8.2c-1.3-0.8-2.9-1.3-4.6-1.3c-1.5,0-3.1,0.3-4.5,0.9c-1.5,0.6-2.8,1.4-4,2.4
		c-1.2,1-2.1,2.3-2.8,3.8c-0.7,1.5-1.1,3.1-1.1,4.9c0,2.3,0.4,4.2,1.3,5.7c0.9,1.6,1.9,2.8,3.2,3.8c1.3,1,2.7,1.7,4.1,2.1
		c1.5,0.4,2.8,0.7,4,0.7c1.1,0,2.2-0.2,3.2-0.5c1-0.3,1.9-0.8,2.7-1.3c0.8-0.5,1.4-1.1,1.9-1.7c0.5-0.6,0.7-1.3,0.7-1.9
		c0-0.4-0.2-1.2-0.6-1.7c-0.1-0.2-0.8-0.9-1.3-1.2c-1.2-0.7-2.2-0.8-3.1-0.3c-2.7,1.4-5.1,1.2-6.2,0.7c-0.8-0.4-1.1-0.7-1.1-1.6
		c0.1-2.9,8.3,0.8,12.1-1.8C443.2,77.5,443.5,75.7,443.5,74.7z M435.4,75.9c-0.6,0.3-1.4,0.4-2.4,0.4c-0.6,0-1.2-0.1-1.9-0.3
		c-0.6-0.2-1-0.6-1-1.2c0-0.4,0.2-0.7,0.6-1.1c0.4-0.4,1.1-0.6,2.2-0.6c0.9,0,1.6,0.2,2.3,0.5c0.6,0.3,1,0.8,1,1.3
		C436.3,75.3,436,75.7,435.4,75.9z"/>
	<g>
		<path fill="#BDBDBD" d="M193.7,64.9c0.4,0.1,0.9,0.2,1.6,0.2c0.3,0,0.6,0,1-0.1c0.3-0.1,0.7-0.2,1.1-0.3c0.4-0.1,0.8-0.2,1.3-0.3
			c0.5-0.1,1.1-0.1,1.8-0.1c1.1,0,1.9,0.1,2.6,0.3c0.6,0.2,1.2,0.4,1.6,0.6c0.4,0.2,0.8,0.4,1.3,0.6c0.4,0.2,0.9,0.3,1.5,0.3
			c0.6,0,1.1-0.1,1.5-0.3c0.4-0.2,0.8-0.4,1.2-0.6c0.4-0.2,0.9-0.4,1.6-0.6c0.6-0.2,1.5-0.3,2.7-0.3c1.2,0,2.3,0.2,3.4,0.6
			c1.1,0.4,2,1.1,2.8,2c0.8,0.9,1.5,2,2,3.4c0.5,1.4,0.7,3,0.7,4.9v7.4c0,1.9-0.4,3.4-1.1,4.3c-0.7,0.9-1.7,1.4-2.8,1.4
			c-0.5,0-1-0.1-1.5-0.3c-0.5-0.2-0.9-0.5-1.4-1c-0.4-0.4-0.7-1-1-1.8c-0.3-0.7-0.4-1.6-0.4-2.7v-6.3c0-1-0.2-1.9-0.7-2.7
			c-0.5-0.8-1.2-1.2-2.1-1.2c-0.5,0-0.9,0.1-1.3,0.4c-0.4,0.3-0.6,0.7-0.8,1.1c-0.2,0.5-0.4,1-0.5,1.5c-0.1,0.6-0.2,1.1-0.2,1.7v6.4
			c0,0.6-0.1,1.2-0.3,1.7c-0.2,0.6-0.5,1.1-0.9,1.6c-0.4,0.5-0.8,0.8-1.3,1.1c-0.5,0.3-1.1,0.4-1.7,0.4c-1,0-1.9-0.4-2.7-1.2
			c-0.8-0.8-1.2-2-1.2-3.6V78c0-1.9-0.2-3.4-0.7-4.3c-0.4-0.9-1.1-1.4-2.1-1.4c-0.8,0-1.5,0.4-2.1,1.2c-0.6,0.8-0.8,2.2-0.8,4v5.7
			c0,0.6-0.1,1.3-0.3,1.9c-0.2,0.6-0.4,1.2-0.8,1.6c-0.4,0.5-0.8,0.9-1.3,1.2c-0.5,0.3-1.1,0.4-1.8,0.4c-1.2,0-2.2-0.5-2.9-1.5
			c-0.7-1-1.1-2.2-1.1-3.6v-13c0-0.7,0.1-1.4,0.2-2.1c0.2-0.7,0.4-1.3,0.8-1.8c0.4-0.5,0.8-0.9,1.4-1.2c0.6-0.3,1.3-0.5,2.1-0.5
			C192.8,64.7,193.3,64.8,193.7,64.9z"/>
		<path fill="#BDBDBD" d="M230.4,65.9c0.8,0.8,1.4,1.9,2,3.2c0.1,0.3,0.3,0.7,0.5,1.3c0.2,0.5,0.4,1,0.7,1.5
			c0.3,0.5,0.5,0.9,0.8,1.3c0.3,0.4,0.6,0.6,1,0.6c0.4,0,0.7-0.2,0.9-0.5c0.3-0.3,0.5-0.7,0.7-1.2c0.2-0.5,0.4-0.9,0.6-1.4
			c0.2-0.5,0.3-0.8,0.4-1.1c0.3-0.6,0.5-1.3,0.9-1.9c0.3-0.6,0.7-1.1,1.1-1.6c0.4-0.4,0.9-0.8,1.4-1.1c0.5-0.3,1.2-0.4,1.9-0.4
			c0.6,0,1.1,0.1,1.5,0.3c0.4,0.2,0.8,0.5,1,0.9c0.3,0.4,0.4,0.7,0.6,1.2c0.1,0.4,0.2,0.8,0.2,1.3c0,0.9-0.4,2.3-1.1,4.2l-7.2,18.8
			c-0.4,1.1-0.9,2.1-1.4,3c-0.5,0.9-1,1.7-1.6,2.2c-0.3,0.3-0.6,0.6-1,0.9c-0.4,0.3-0.9,0.7-1.4,1c-0.5,0.3-1.1,0.6-1.8,0.8
			c-0.7,0.2-1.5,0.3-2.3,0.3c-0.9,0-1.6-0.1-2.3-0.3c-0.7-0.2-1.2-0.5-1.7-0.9c-0.4-0.4-0.8-0.8-1-1.2c-0.2-0.5-0.3-0.9-0.3-1.4
			c0-0.9,0.2-1.7,0.7-2.2c0.5-0.5,1-0.9,1.7-1.3c0.6-0.3,1.3-0.6,2-0.9c0.7-0.2,1.2-0.6,1.6-0.9c0.4-0.4,0.6-0.8,0.9-1.4
			c0.2-0.6,0.3-1.3,0.3-2.2c0-0.3-0.1-0.7-0.3-1.3c-0.2-0.6-0.4-1.1-0.6-1.6l-5.2-12.4c-0.6-1.6-1-2.7-1-3.4c0-1,0.3-1.8,0.8-2.6
			c0.5-0.8,1.5-1.1,2.9-1.1C228.6,64.6,229.7,65,230.4,65.9z"/>
		<path fill="#ffffff" d="M253.6,53.3c0.5,0.4,0.9,1,1.2,1.7c0.3,0.7,0.5,1.5,0.6,2.4c0.1,0.9,0.1,1.9,0.1,2.9c0,0.9,0,1.6,0.1,2.1
			c0.1,0.5,0.2,0.9,0.4,1.2c0.2,0.3,0.4,0.5,0.7,0.6c0.3,0.1,0.6,0.2,1.1,0.2c0.5,0,1.1-0.1,1.8-0.2c0.7-0.1,1.5-0.2,2.5-0.2
			c1.1,0,2.3,0.3,3.5,0.8c1.2,0.5,2.4,1.4,3.4,2.4c1.1,1.1,1.9,2.4,2.6,3.9c0.7,1.5,1.1,3.3,1.1,5.2c0,2.3-0.4,4.3-1.1,6
			c-0.8,1.6-1.7,2.9-2.9,3.9c-1.2,1-2.4,1.7-3.8,2.2c-1.4,0.4-2.6,0.7-3.8,0.7c-0.9,0-1.7-0.1-2.2-0.2c-0.5-0.1-1-0.3-1.4-0.4
			c-0.4-0.1-0.8-0.3-1.1-0.4c-0.4-0.1-0.8-0.2-1.4-0.2c-0.4,0-0.7,0-1,0.1c-0.2,0-0.5,0.1-0.7,0.1c-0.2,0-0.5,0.1-0.7,0.1
			c-0.3,0-0.6,0.1-1,0.1c-1.3,0-2.3-0.5-3.1-1.4c-0.8-0.9-1.2-2.5-1.2-4.9V57.9c0-1.5,0.4-2.8,1.1-3.8c0.7-1,1.8-1.5,3.1-1.5
			C252.4,52.7,253.1,52.9,253.6,53.3z M258.5,72.4c-0.5,0.2-1,0.5-1.4,0.9c-0.4,0.4-0.8,0.9-1,1.4c-0.3,0.6-0.4,1.2-0.4,1.9
			c0,0.4,0.1,0.9,0.2,1.4c0.2,0.5,0.4,1,0.7,1.5c0.3,0.5,0.8,0.9,1.3,1.2c0.5,0.3,1.2,0.5,2,0.5c0.8,0,1.5-0.1,2-0.4
			c0.6-0.3,1-0.6,1.4-1.1c0.4-0.4,0.6-0.9,0.8-1.4c0.2-0.5,0.3-1,0.3-1.5c0-1.3-0.4-2.4-1.1-3.3c-0.7-0.9-1.8-1.4-3.2-1.4
			C259.7,72,259.1,72.1,258.5,72.4z"/>
		<path fill="#ffffff" d="M290.8,64.7c1.6,0.6,3,1.5,4.1,2.6c1.2,1.1,2.1,2.5,2.9,4c0.7,1.6,1.1,3.3,1.1,5.1c0,1.9-0.4,3.6-1.1,5.2
			c-0.7,1.6-1.6,2.9-2.8,4.1c-1.2,1.2-2.5,2.1-4.1,2.7c-1.6,0.6-3.2,1-4.9,1c-1.7,0-3.4-0.3-5-0.9c-1.6-0.6-3-1.5-4.2-2.6
			c-1.2-1.1-2.2-2.5-2.9-4c-0.7-1.6-1.1-3.3-1.1-5.2c0-2.2,0.4-4,1.2-5.6c0.8-1.6,1.9-2.9,3.1-4c1.3-1.1,2.7-1.9,4.2-2.4
			c1.5-0.5,3-0.8,4.5-0.8C287.6,63.8,289.2,64.1,290.8,64.7z M283.9,72.3c-0.6,0.3-1,0.6-1.4,1.1c-0.4,0.4-0.7,0.9-0.9,1.5
			c-0.2,0.5-0.3,1.1-0.3,1.7c0,0.5,0.1,1,0.3,1.5c0.2,0.5,0.5,1.1,0.9,1.5c0.4,0.5,0.9,0.8,1.4,1.1c0.6,0.3,1.2,0.4,2,0.4
			c0.7,0,1.4-0.1,2-0.4c0.6-0.3,1-0.7,1.4-1.1c0.4-0.4,0.6-0.9,0.8-1.5c0.2-0.5,0.3-1.1,0.3-1.6c0-1.3-0.4-2.3-1.2-3.3
			c-0.8-0.9-1.9-1.4-3.3-1.4C285.1,71.9,284.5,72,283.9,72.3z"/>
		<path fill="#ffffff" d="M316.8,64.7c1.6,0.6,3,1.5,4.1,2.6c1.2,1.1,2.1,2.5,2.9,4c0.7,1.6,1.1,3.3,1.1,5.1c0,1.9-0.4,3.6-1.1,5.2
			c-0.7,1.6-1.6,2.9-2.8,4.1c-1.2,1.2-2.5,2.1-4.1,2.7c-1.6,0.6-3.2,1-4.9,1c-1.7,0-3.4-0.3-5-0.9c-1.6-0.6-3-1.5-4.2-2.6
			c-1.2-1.1-2.2-2.5-2.9-4c-0.7-1.6-1.1-3.3-1.1-5.2c0-2.2,0.4-4,1.2-5.6c0.8-1.6,1.9-2.9,3.1-4c1.3-1.1,2.7-1.9,4.2-2.4
			c1.5-0.5,3-0.8,4.5-0.8C313.6,63.8,315.3,64.1,316.8,64.7z M310,72.3c-0.6,0.3-1,0.6-1.4,1.1c-0.4,0.4-0.7,0.9-0.9,1.5
			c-0.2,0.5-0.3,1.1-0.3,1.7c0,0.5,0.1,1,0.3,1.5c0.2,0.5,0.5,1.1,0.9,1.5c0.4,0.5,0.9,0.8,1.4,1.1c0.6,0.3,1.2,0.4,2,0.4
			c0.7,0,1.4-0.1,1.9-0.4c0.6-0.3,1-0.7,1.4-1.1c0.4-0.4,0.6-0.9,0.8-1.5c0.2-0.5,0.3-1.1,0.3-1.6c0-1.3-0.4-2.3-1.2-3.3
			c-0.8-0.9-1.9-1.4-3.3-1.4C311.2,71.9,310.5,72,310,72.3z"/>
		<path fill="#ffffff" d="M331.9,54c0.5,0.3,0.9,0.6,1.4,1.2c0.4,0.5,0.7,1.2,1,1.9c0.3,0.8,0.4,1.6,0.4,2.6v6.4
			c0,0.6,0.1,1.3,0.3,1.9c0.2,0.6,0.6,0.9,1,0.9c0.4,0,0.9-0.2,1.3-0.6c0.4-0.4,1-0.8,1.5-1.3c0.6-0.5,1.2-0.9,1.9-1.3
			c0.7-0.4,1.5-0.6,2.5-0.6c1,0,1.8,0.2,2.6,0.7c0.7,0.4,1.1,1.1,1.1,2.1c0,0.7-0.3,1.4-0.8,2.1c-0.5,0.7-1.1,1.4-1.7,2.1
			c-0.6,0.7-1.2,1.4-1.7,2.1c-0.5,0.7-0.8,1.4-0.8,2c0,0.6,0.3,1.2,0.9,2c0.6,0.8,1.3,1.6,2,2.5c0.7,0.9,1.4,1.7,2,2.6
			c0.6,0.9,0.9,1.7,0.9,2.4c0,0.9-0.4,1.7-1.1,2.2c-0.8,0.5-1.6,0.8-2.7,0.8c-0.3,0-0.6-0.1-1-0.1c-0.4-0.1-0.8-0.2-1.2-0.4
			c-0.4-0.2-0.8-0.4-1.1-0.6c-0.4-0.2-0.7-0.5-1-0.8c-0.2-0.2-0.5-0.5-0.8-0.9c-0.3-0.4-0.6-0.7-1-1c-0.4-0.3-0.7-0.6-1.1-0.9
			c-0.4-0.2-0.8-0.4-1.2-0.4c-0.3,0-0.5,0.2-0.7,0.7c-0.2,0.5-0.5,1-0.8,1.6c-0.3,0.6-0.8,1.1-1.3,1.6c-0.5,0.5-1.2,0.7-2.1,0.7
			c-0.4,0-0.9-0.1-1.4-0.3c-0.5-0.2-1-0.5-1.4-1c-0.4-0.5-0.8-1.1-1-2c-0.3-0.8-0.4-1.9-0.4-3.2V59.5c0-0.7,0.1-1.4,0.2-2.1
			c0.1-0.7,0.4-1.3,0.7-1.9c0.3-0.6,0.8-1,1.3-1.4c0.5-0.4,1.2-0.5,1.9-0.5C330.9,53.6,331.4,53.7,331.9,54z"/>
		<path fill="#ffffff" d="M348.6,69.9c0-0.9,0.1-1.6,0.2-2.2c0.1-0.6,0.3-1.1,0.5-1.4c0.2-0.4,0.4-0.7,0.6-0.9
			c0.2-0.2,0.4-0.4,0.6-0.6c0.8-0.6,3-0.8,4.1,0c0.2,0.1,0.4,0.4,0.6,0.6c0.2,0.2,0.4,0.5,0.7,0.9c0.2,0.4,0.4,0.9,0.6,1.4
			c0.1,0.6,0.2,1.3,0.2,2.2v13.1c0,1.6-0.3,2.9-1,3.9c-0.6,1-1.7,1.5-3.1,1.5c-1.3,0-2.3-0.5-3-1.5c-0.7-1-1.1-2.3-1.1-3.9
			L348.6,69.9L348.6,69.9z"/>
		<path fill="#ffffff" d="M365.6,64.9c0.5,0.1,1,0.2,1.6,0.2c0.3,0,0.7-0.1,1-0.2c0.4-0.1,0.8-0.2,1.3-0.4c0.5-0.1,1.1-0.3,1.9-0.4
			c0.7-0.1,1.6-0.2,2.7-0.2c1,0,2.1,0.2,3.2,0.5c1.1,0.3,2.1,0.9,3.1,1.7c0.9,0.8,1.7,1.9,2.3,3.2c0.6,1.3,0.9,3.1,0.9,5.1v8.7
			c0,0.5-0.1,1-0.2,1.6c-0.2,0.6-0.4,1.2-0.7,1.7c-0.3,0.5-0.7,0.9-1.3,1.3c-0.5,0.4-1.1,0.5-1.9,0.5c-1.2,0-2.2-0.5-3-1.5
			c-0.8-1-1.1-2.3-1.2-3.7v-6.8c0-1.3-0.3-2.3-1-3.1c-0.7-0.8-1.5-1.2-2.6-1.2c-1.1,0-2.1,0.4-2.8,1.2c-0.7,0.8-1.1,2.1-1.1,3.8v5.7
			c0,0.7-0.1,1.4-0.3,2.1s-0.5,1.3-0.8,1.8c-0.4,0.5-0.8,1-1.4,1.3c-0.5,0.3-1.1,0.5-1.8,0.5c-0.7,0-1.3-0.1-1.8-0.4
			c-0.5-0.3-0.9-0.7-1.3-1.2c-0.3-0.5-0.6-1-0.7-1.6c-0.2-0.6-0.2-1.3-0.2-1.9V69.7c0-0.8,0.1-1.5,0.4-2.1c0.2-0.6,0.6-1.1,1-1.6
			c0.4-0.4,0.9-0.7,1.4-1s1-0.3,1.6-0.3C364.6,64.7,365.1,64.8,365.6,64.9z"/>
		<path fill="#ffffff" d="M409.4,66.7c-0.7-1.2-1.8-1.7-3.3-1.7c-0.4,0-1,0.1-1.7,0.2c-0.7,0.1-1.3,0.2-1.7,0.2
			c-0.4,0-0.8-0.1-1.2-0.2c-0.4-0.1-0.8-0.2-1.3-0.4c-0.5-0.1-1-0.3-1.6-0.4c-0.6-0.1-1.3-0.2-2.1-0.2c-1.7,0-3.3,0.3-4.7,0.9
			c-1.4,0.6-2.7,1.5-3.7,2.7c-1,1.1-1.9,2.5-2.4,4.1c-0.6,1.6-0.9,3.3-0.9,5.3c0,1.3,0.2,2.4,0.5,3.4c0.3,1,0.7,1.9,1.2,2.7
			c0.5,0.8,0.9,1.4,1.4,2c0.5,0.5,3.4,3.4,7.2,3.2c0.1,0,0.3,0,0.7-0.1c0.4,0,0.9-0.1,1.5-0.2c0.5-0.1,0.9-0.1,1.1-0.1
			c0.5,0,0.8,0.1,1,0.2c0.2,0.1,0.4,1.3,0.4,1.8c0,0.5-0.2,0.8-0.7,1.1c-0.5,0.2-1.1,0.4-2,0.4s-1.6-0.2-2.3-0.5
			c-0.7-0.3-0.8-0.8-2.1-1.3c-1.3-0.4-4.4-1.1-5.9,1.8c-0.9,1.9-0.1,3.8,0.3,4.4c0.4,0.6,1,1.1,1.9,1.7c0.9,0.5,2,1,3.3,1.3
			c1.3,0.4,3,0.5,4.9,0.5c2.6,0,4.8-0.5,6.5-1.4c1.7-0.9,3.1-2.1,4.1-3.5c1-1.4,1.7-3,2.1-4.8c0.4-1.8,0.6-3.4,0.6-5.1V71.4
			C410.5,69.4,410.1,67.9,409.4,66.7z M401.9,78.3c-0.2,0.5-0.5,1-0.9,1.4c-0.4,0.4-0.9,0.8-1.4,1c-0.5,0.3-1.1,0.4-1.8,0.4
			c-1.2,0-2.2-0.4-3.2-1.2c-0.9-0.8-1.4-2-1.4-3.5c0-1.4,0.5-2.4,1.4-3.2c0.9-0.7,2.1-1.1,3.4-1.1c0.6,0,1.1,0.1,1.6,0.4
			c0.5,0.3,0.9,0.6,1.3,1c0.4,0.4,0.7,0.9,0.9,1.4c0.2,0.5,0.3,1.1,0.3,1.7C402.2,77.2,402.1,77.8,401.9,78.3z"/>
		<path fill="#ffffff" d="M419.5,82.4c0.7,0.9,1.1,1.9,1.1,3c0,1.3-0.4,2.3-1.2,3.1c-0.8,0.8-1.9,1.2-3.1,1.2
			c-1.1,0-2.1-0.4-2.9-1.2c-0.8-0.8-1.3-1.8-1.3-3.1c0-0.5,0.1-1,0.3-1.5c0.2-0.5,0.5-1,0.8-1.4c0.4-0.4,0.8-0.8,1.3-1
			c0.5-0.3,1.1-0.4,1.8-0.4C417.7,81.1,418.8,81.5,419.5,82.4z"/>
		<g id="XMLID_2_">
			<g>
				<path fill="#ffffff" d="M462.4,76.1c2.4,2.1,2.4,3.8,2.4,5c0,0.9-0.2,1.8-0.7,2.8c-0.4,1-1.1,1.9-1.9,2.7
					c-0.8,0.8-1.9,1.5-3.1,2c-1.2,0.5-2.6,0.8-4.2,0.8c-1.6,0-3-0.1-4.1-0.4c-1.1-0.3-2-0.7-2.7-1.1c-0.7-0.5-1.2-1-1.5-1.6
					c-0.3-0.6-0.4-1.2-0.4-1.7c0-0.9,0-2.4,2.1-3.2c1.7-0.7,4.6,1.1,5,0c0.4-1.2-2-1.7-3.5-2.5c-2.2-1.2-3.1-2.4-3.6-3.3
					c-0.5-0.9-0.8-2.1-0.8-3.5c0-1.3,0.3-2.4,0.9-3.5c0.6-1,1.4-1.9,2.3-2.6c0.9-0.7,1.9-1.2,3.1-1.6c1.1-0.4,2.1-0.5,3.1-0.5
					c1.1,0,2.1,0.1,3,0.4c1,0.2,1.8,0.6,2.5,1c0.7,0.4,2.4,1.6,2.3,3.3c0,1.5-0.8,2.4-1.4,2.7c-1.7,0.9-3.3,0.4-3.9,0.9
					c-0.3,0.2-0.4,0.5-0.5,0.7C457,74.3,460.1,74.1,462.4,76.1z"/>
			</g>
		</g>
	</g>
	<path fill="#ffffff" d="M348.7,58.6c-0.1-0.5,0-1.1,0.1-1.6c0.1-0.5,0.5-1.1,1.1-1.8c0.3-0.3,0.7-0.6,1.2-0.8
		c0.5-0.2,1-0.3,1.5-0.3c0.5,0,1.1,0.1,1.6,0.2c0.5,0.2,1,0.5,1.4,0.9c0.4,0.4,0.7,0.9,0.9,1.4c0.2,0.5,0.2,1,0.2,1.5
		c0,0.5-0.1,1-0.3,1.5c-0.2,0.5-0.5,0.9-0.8,1.2c-0.6,0.6-1.2,1-1.7,1.1c-0.5,0.1-1.1,0.2-1.6,0.2C350.2,62,348.9,59.9,348.7,58.6z"
		/>
</g>
</svg>
