<svg xmlns="http://www.w3.org/2000/svg" xmlns:xlink="http://www.w3.org/1999/xlink" viewBox="0 0 47 23.75" version="1.1" x="0px" y="0px"><title>hatch</title><desc>Created with Sketch.</desc><g stroke="none" stroke-width="1" fill="none" fill-rule="evenodd"><g transform="translate(-614.000000, -114.000000)" fill-rule="nonzero" fill="#000000"><path d="M622.697422,117.881882 L622.822201,117.944272 C624.210755,118.638549 625.741886,119 627.294337,119 L633.698864,119 L633.033674,116.501992 C632.988286,116.331546 632.989772,116.159656 633.030207,116 L630.941821,116 C628.084346,116 625.266656,116.644481 622.697422,117.881882 Z M620.505403,119.021941 L617.403057,120.654755 C616.972225,120.881508 616.492679,121 616,121 L616,122 L616.925148,122 C617.477432,122 617.925148,122.447715 617.925148,123 C617.925148,123.552285 617.477432,124 616.925148,124 L616,124 L616,127 C616,127.552285 616.447715,128 617,128 L618,128 C618.552285,128 619,128.447715 619,129 C619,129.552285 618.552285,130 618,130 L617,130 C615.343146,130 614,128.656854 614,127 L614,120.75 C614,119.783502 614.783502,119 615.75,119 L616.005818,119 C616.168105,119 616.327954,118.960503 616.471564,118.884918 L621.161146,116.416717 C624.176971,114.829441 627.533794,114 630.941821,114 L633.667816,114 C636.665584,114 639.62861,114.641819 642.357678,115.882304 L649.188001,118.986996 C649.262981,119.021078 649.341885,119.045766 649.422919,119.0605 L658.007227,120.621283 C658.104105,120.638897 658.200057,120.66127 658.294734,120.688321 C659.887839,121.143494 660.810315,122.803951 660.355142,124.397056 L659.375969,127.824163 C659.007996,129.112068 657.830838,130 656.491397,130 L656,130 C655.447715,130 655,129.552285 655,129 C655,128.447715 655.447715,128 656,128 L656.491397,128 C656.937878,128 657.330264,127.704023 657.452921,127.274721 L658.388556,124 L656.69737,124 C656.145085,124 655.69737,123.552285 655.69737,123 C655.69737,122.721467 655.811245,122.469531 655.994979,122.288209 L649.065148,121.02824 C649.019212,121.019888 648.973505,121.01047 648.928062,120.999996 C648.927164,120.999999 648.926266,121 648.925367,121 L635.021514,121 C635.006705,121.000331 634.991935,121.000329 634.977212,121 L627.294337,121 C625.431396,121 623.594039,120.566259 621.927774,119.733126 L620.505403,119.021941 Z M644.383391,119 L641.530072,117.703037 C639.460635,116.762384 637.24251,116.202206 634.981808,116.045489 L635.768559,119 L644.383391,119 Z M631,130 C630.447715,130 630,129.552285 630,129 C630,128.447715 630.447715,128 631,128 L643,128 C643.552285,128 644,128.447715 644,129 C644,129.552285 643.552285,130 643,130 L631,130 Z M649.5,133 C647.014719,133 645,130.985281 645,128.5 C645,126.014719 647.014719,124 649.5,124 C651.985281,124 654,126.014719 654,128.5 C654,130.985281 651.985281,133 649.5,133 Z M649.5,131 C650.880712,131 652,129.880712 652,128.5 C652,127.119288 650.880712,126 649.5,126 C648.119288,126 647,127.119288 647,128.5 C647,129.880712 648.119288,131 649.5,131 Z M624.5,133 C622.014719,133 620,130.985281 620,128.5 C620,126.014719 622.014719,124 624.5,124 C626.985281,124 629,126.014719 629,128.5 C629,130.985281 626.985281,133 624.5,133 Z M624.5,131 C625.880712,131 627,129.880712 627,128.5 C627,127.119288 625.880712,126 624.5,126 C623.119288,126 622,127.119288 622,128.5 C622,129.880712 623.119288,131 624.5,131 Z"/></g></g></svg>