<svg xmlns="http://www.w3.org/2000/svg" viewBox="0 0 24 30"><path d="M15.9 9.537l3.899 1.044a.541.541 0 00.13.017.5.5 0 00.129-.984l-2.932-.785 2.418-1.396a.5.5 0 10-.5-.866l-2.419 1.397.786-2.932a.5.5 0 00-.353-.613.509.509 0 00-.613.353l-1.044 3.9L12 10.633V6.707l2.854-2.854a.5.5 0 00-.707-.707L12 5.293V2.5a.5.5 0 00-1 0v2.793L8.854 3.146a.5.5 0 00-.707.707L11 6.707v3.927L7.6 8.671 6.554 4.772a.5.5 0 10-.966.26l.786 2.932-2.42-1.397a.5.5 0 10-.5.866l2.42 1.396-2.933.785a.5.5 0 00.13.984.541.541 0 00.13-.017L7.1 9.537l3.4 1.963-3.4 1.963-3.899-1.044a.507.507 0 00-.612.354.5.5 0 00.353.613l2.932.785-2.418 1.396a.5.5 0 00.25.933.493.493 0 00.25-.067l2.419-1.397-.786 2.932a.5.5 0 00.353.613.541.541 0 00.13.017.5.5 0 00.483-.37l1.044-3.9L11 12.367v3.927l-2.854 2.853a.5.5 0 10.707.707L11 17.707V20.5a.5.5 0 001 0v-2.793l2.146 2.146a.5.5 0 00.707-.707L12 16.293v-3.927l3.4 1.963 1.045 3.899a.5.5 0 00.483.37.541.541 0 00.13-.017.5.5 0 00.353-.613l-.786-2.932 2.42 1.397a.493.493 0 00.249.067.5.5 0 00.25-.933l-2.418-1.396 2.932-.785a.5.5 0 00-.26-.967L15.9 13.463 12.5 11.5z"/><text y="39" font-size="5" font-weight="bold" font-family="'Helvetica Neue', Helvetica, Arial-Unicode, Arial, Sans-serif">Created by Travis Avery</text><text y="44" font-size="5" font-weight="bold" font-family="'Helvetica Neue', Helvetica, Arial-Unicode, Arial, Sans-serif">from the Noun Project</text></svg>