<svg xmlns="http://www.w3.org/2000/svg" data-name="Слой 1" viewBox="0 0 100 125"><path d="M77.55 59.71V42.54l11 11A2.5 2.5 0 0092.1 50L77.55 35.46v-21A14.52 14.52 0 0063.05 0h-26.1a14.52 14.52 0 00-14.5 14.5v21L7.9 50a2.5 2.5 0 103.54 3.54l11-11v17.17L7.9 74.25a2.5 2.5 0 103.54 3.54l11-11V85.5A14.52 14.52 0 0036.95 100h26.1a14.52 14.52 0 0014.5-14.5V66.78l11 11a2.5 2.5 0 003.54-3.54zm-5 10.29a9.51 9.51 0 01-9.5 9.5h-26.1a9.51 9.51 0 01-9.5-9.5V40.5a9.51 9.51 0 019.5-9.5h26.1a9.51 9.51 0 019.5 9.5zM36.95 5h26.1a9.51 9.51 0 019.5 9.5v15.07a14.42 14.42 0 00-9.5-3.57h-26.1a14.42 14.42 0 00-9.5 3.57V14.5a9.51 9.51 0 019.5-9.5zm26.1 90h-26.1a9.51 9.51 0 01-9.5-9.5v-4.57a14.42 14.42 0 009.5 3.57h26.1a14.42 14.42 0 009.5-3.57v4.57a9.51 9.51 0 01-9.5 9.5z"/></svg>