<svg xmlns="http://www.w3.org/2000/svg" viewBox="0 0 100 125"><path d="M73.1 19.638c-7.4 0-13.4 6-13.4 13.4 0 4.5 2.2 8.4 5.6 10.9-6.3 2.6-11.1 8.1-12.6 14.9-2.9-2.8-6.4-5-10.2-6.4 5-3.1 8.4-8.6 8.4-14.8 0-9.6-7.8-17.4-17.4-17.4-9.6 0-17.4 7.8-17.4 17.4 0 6.3 3.4 11.8 8.4 14.8-10.7 3.7-18.5 14-18.5 26 0 1.1.9 2 2 2s2-.9 2-2v-.1c0-12.7 10-23 22.5-23.5h2c12.5.5 22.5 10.8 22.5 23.5 0 1.1.9 2 2 2s2-.9 2-2v-.1c0-5.7-1.7-11-4.7-15.4.1-9 7.2-16.3 16.2-16.7h1.4c9 .3 16.2 7.7 16.2 16.9 0 1.1.9 2 2 2s2-.9 2-2v-.1c0-8.7-5.4-16.3-13.1-19.4 3.4-2.4 5.6-6.4 5.6-10.9-.1-7-6.1-13-13.5-13zm0 4c5.2 0 9.4 4.2 9.4 9.4 0 5-3.9 9-8.8 9.4h-1.2c-4.9-.3-8.8-4.4-8.8-9.4 0-5.3 4.2-9.4 9.4-9.4zm-39.6.5c7.4 0 13.4 6 13.4 13.4 0 7.1-5.5 12.9-12.4 13.3h-1.8c-7-.5-12.4-6.3-12.4-13.3-.2-7.4 5.8-13.4 13.2-13.4z" fill-rule="evenodd" clip-rule="evenodd"/></svg>