<svg xmlns="http://www.w3.org/2000/svg" viewBox="0 0 44 55"><path d="M42 24c-.6 0-1 .4-1 1v13c0 .6-.4 1-1 1H4c-.6 0-1-.4-1-1V25c0-.6-.4-1-1-1s-1 .4-1 1v13c0 1.7 1.3 3 3 3h36c1.7 0 3-1.3 3-3V25c0-.6-.4-1-1-1z"/><path d="M41 10H3c-1.7 0-3 1.3-3 3v6.4c0 1.4 1 2.6 2.3 2.9L18 25.8V29c0 .6.4 1 1 1h6c.6 0 1-.4 1-1v-3.2l15.7-3.5C43 22 44 20.8 44 19.4V13c0-1.7-1.3-3-3-3zM24 28h-4v-4h4v4zm18-8.6c0 .5-.3.9-.8 1L26 23.8V23c0-.6-.4-1-1-1h-6c-.6 0-1 .4-1 1v.8L2.8 20.4c-.5-.1-.8-.5-.8-1V13c0-.6.4-1 1-1h38c.6 0 1 .4 1 1v6.4zM15 8c.6 0 1-.4 1-1V6c0-.6.4-1 1-1h10c.6 0 1 .4 1 1v1c0 .6.4 1 1 1s1-.4 1-1V6c0-1.7-1.3-3-3-3H17c-1.7 0-3 1.3-3 3v1c0 .6.4 1 1 1z"/></svg>