<svg xmlns="http://www.w3.org/2000/svg" viewBox="0 0 100 125"><path d="M77 68.6V30.9c3.1-.9 5.3-3.7 5.3-7.1 0-4.1-3.4-7.4-7.5-7.4s-7.5 3.3-7.5 7.4c0 3.5 2.4 6.4 5.7 7.2v16H52V31c3.2-.9 5.5-3.7 5.5-7.1 0-4.1-3.4-7.4-7.5-7.4s-7.5 3.3-7.5 7.4c0 3.4 2.3 6.3 5.5 7.1v16H28.5c-.5 0-1.5-.1-1.5-1V31c3.3-.8 5.7-3.7 5.7-7.2 0-4.1-3.4-7.4-7.5-7.4s-7.5 3.3-7.5 7.4c0 3.3 2.2 6.1 5.3 7.1V46c0 2.9 2.3 5 5.5 5H48v17.5c-3.2.9-5.5 3.7-5.5 7.1 0 4.1 3.4 7.4 7.5 7.4s7.5-3.3 7.5-7.4c0-3.4-2.3-6.3-5.5-7.1V51h21v17.4c-3.3.8-5.7 3.7-5.7 7.2 0 4.1 3.4 7.4 7.5 7.4s7.5-3.3 7.5-7.4c0-3.3-2.2-6.1-5.3-7zM46.5 23.8c0-1.9 1.6-3.4 3.5-3.4s3.5 1.5 3.5 3.4-1.6 3.4-3.5 3.4-3.5-1.5-3.5-3.4zm-24.8 0c0-1.9 1.6-3.4 3.5-3.4s3.5 1.5 3.5 3.4-1.6 3.4-3.5 3.4-3.5-1.5-3.5-3.4zm31.8 51.8c0 1.9-1.6 3.4-3.5 3.4s-3.5-1.5-3.5-3.4 1.6-3.4 3.5-3.4 3.5 1.5 3.5 3.4zm17.8-51.8c0-1.9 1.6-3.4 3.5-3.4s3.5 1.5 3.5 3.4-1.6 3.4-3.5 3.4-3.5-1.5-3.5-3.4zM74.8 79c-1.9 0-3.5-1.5-3.5-3.4s1.6-3.4 3.5-3.4 3.5 1.5 3.5 3.4-1.6 3.4-3.5 3.4z"/></svg>